<svg width="36" height="36" viewBox="0 0 36 36" fill="none" xmlns="http://www.w3.org/2000/svg">
<rect x="0.5" y="0.5" width="35" height="35" rx="9.5" stroke="#F1F3F5"/>
<g clip-path="url(#clip0_2198_2629)">
<path d="M8.83334 18C8.83334 18 12.1667 11.3333 18 11.3333C23.8333 11.3333 27.1667 18 27.1667 18C27.1667 18 23.8333 24.6667 18 24.6667C12.1667 24.6667 8.83334 18 8.83334 18Z" stroke="#0B5FFF" stroke-width="2" stroke-linecap="round" stroke-linejoin="round"/>
<path d="M18 20.5C19.3807 20.5 20.5 19.3807 20.5 18C20.5 16.6193 19.3807 15.5 18 15.5C16.6193 15.5 15.5 16.6193 15.5 18C15.5 19.3807 16.6193 20.5 18 20.5Z" stroke="#0B5FFF" stroke-width="2" stroke-linecap="round" stroke-linejoin="round"/>
</g>
<defs>
<clipPath id="clip0_2198_2629">
<rect width="20" height="20" fill="white" transform="translate(8 8)"/>
</clipPath>
</defs>
</svg>
